<svg width="75" height="56" viewBox="0 0 75 56" fill="none" xmlns="http://www.w3.org/2000/svg">
<g clip-path="url(#clip0_1_27)">
<path fill-rule="evenodd" clip-rule="evenodd" d="M42.784 30.2819C42.784 30.2819 46.5193 24.445 55.9485 25.6263C65.3788 26.8088 68.8186 24.0875 68.8186 24.0875C68.8186 24.0875 62.3976 32.9425 54.9458 30.5614C47.4939 28.1792 42.784 30.2819 42.784 30.2819Z" fill="white"/>
<path fill-rule="evenodd" clip-rule="evenodd" d="M36.8264 50.9623C36.8264 50.9623 40.5629 45.1266 49.9933 46.3068C59.4236 47.4904 62.8645 44.7691 62.8645 44.7691C62.8645 44.7691 56.4424 53.6218 48.9894 51.2408C41.5375 48.8574 36.8264 50.9623 36.8264 50.9623Z" fill="white"/>
<path fill-rule="evenodd" clip-rule="evenodd" d="M48.8372 10.7238C48.8372 10.7238 52.5726 4.88812 62.0017 6.07062C71.4309 7.25312 74.8718 4.53176 74.8718 4.53176C74.8718 4.53176 68.4473 13.3845 60.9978 11.0034C53.5471 8.62124 48.8372 10.7238 48.8372 10.7238Z" fill="white"/>
<path fill-rule="evenodd" clip-rule="evenodd" d="M30.5158 25.0046C30.5158 25.0046 29.8332 25.6405 26.3747 25.6405H17.0018C15.4983 25.6405 15.286 26.2398 15.286 26.2398C15.3529 25.8789 15.5523 24.921 15.6179 24.5646C17.4803 14.6039 18.9463 6.78011 19.0143 6.50626C19.5597 4.35209 21.4983 3.9098 21.4983 3.9098L12.5194 3.89834C12.5194 3.89834 10.684 3.93157 10.0308 6.52345C9.84433 7.27168 3.52538 41.3602 2.17786 48.964C1.86941 50.7056 0 51.3267 0 51.3267H8.88734C8.88734 51.3267 10.6055 51.1869 11.0687 48.964C11.6973 45.9562 12.8713 39.2886 14.3619 31.2815C14.566 30.0818 15.8185 30.201 15.8185 30.201H24.7692C24.7692 30.201 27.7234 30.2582 29.0697 28.7698C30.4173 27.286 30.5158 25.0046 30.5158 25.0046Z" fill="white"/>
<path fill-rule="evenodd" clip-rule="evenodd" d="M32.5002 26.1872C30.6988 60.1738 5.66341 55.0565 5.66341 55.0565C5.66341 55.0565 5.65403 55.2776 5.65286 55.312C9.54884 56.0992 38.7394 60.6356 40.5724 29.8138C42.375 -4.17165 67.4116 0.943352 67.4116 0.943352C67.4116 0.943352 67.4198 0.72106 67.4221 0.687831C63.5238 -0.0982112 34.3356 -4.638 32.5002 26.1872Z" fill="white"/>
</g>
<defs>
<clipPath id="clip0_1_27">
<rect width="75" height="56" fill="white"/>
</clipPath>
</defs>
</svg>
