<svg width="133" height="100" viewBox="0 0 133 100" fill="none" xmlns="http://www.w3.org/2000/svg">
<path fill-rule="evenodd" clip-rule="evenodd" d="M75.6045 54.0751C75.6045 54.0751 82.2052 43.6521 98.8677 45.7616C115.532 47.8732 121.611 43.0137 121.611 43.0137C121.611 43.0137 110.264 58.8262 97.0958 54.5743C83.9274 50.3204 75.6045 54.0751 75.6045 54.0751Z" fill="#02594C"/>
<path fill-rule="evenodd" clip-rule="evenodd" d="M65.0769 91.0047C65.0769 91.0047 71.6797 80.5837 88.3443 82.6912C105.009 84.8049 111.089 79.9453 111.089 79.9453C111.089 79.9453 99.7407 95.7537 86.5703 91.5019C73.4019 87.2459 65.0769 91.0047 65.0769 91.0047Z" fill="#02594C"/>
<path fill-rule="evenodd" clip-rule="evenodd" d="M86.3015 19.1491C86.3015 19.1491 92.9023 8.72814 109.565 10.8398C126.227 12.9514 132.308 8.0918 132.308 8.0918C132.308 8.0918 120.955 23.9002 107.791 19.6483C94.6245 15.3944 86.3015 19.1491 86.3015 19.1491Z" fill="#02594C"/>
<path fill-rule="evenodd" clip-rule="evenodd" d="M53.9252 44.6507C53.9252 44.6507 52.719 45.7863 46.6073 45.7863H30.0443C27.3874 45.7863 27.0123 46.8564 27.0123 46.8564C27.1304 46.2119 27.4828 44.5013 27.5988 43.865C30.8899 26.0779 33.4804 12.107 33.6006 11.6179C34.5643 7.77121 37.9901 6.9814 37.9901 6.9814L22.1234 6.96094C22.1234 6.96094 18.88 7.02028 17.7257 11.6486C17.3961 12.9847 6.22979 73.8572 3.84854 87.4353C3.30349 90.5454 0 91.6544 0 91.6544H15.705C15.705 91.6544 18.7412 91.4048 19.5598 87.4353C20.6706 82.0642 22.7451 70.1578 25.3792 55.8594C25.7398 53.7171 27.9532 53.9299 27.9532 53.9299H43.7701C43.7701 53.9299 48.9906 54.0322 51.3698 51.3743C53.7511 48.7245 53.9252 44.6507 53.9252 44.6507Z" fill="#02594C"/>
<path fill-rule="evenodd" clip-rule="evenodd" d="M57.4318 46.7629C54.2485 107.453 10.0079 98.3152 10.0079 98.3152C10.0079 98.3152 9.99133 98.7101 9.98926 98.7714C16.8739 100.177 68.4572 108.278 71.6965 53.2389C74.8818 -7.44938 119.124 1.68456 119.124 1.68456C119.124 1.68456 119.139 1.28761 119.143 1.22827C112.254 -0.175377 60.6752 -8.28215 57.4318 46.7629Z" fill="#02594C"/>
</svg>
